:FULLY-SPECIFIED
:FORCE-ALL-JOINTS-BE-3DOF
:DEGREES
2956
root -5.89978 13.2548 -28.9088 161.537 -68.3092 -158.366
lfemur -67.6657 42.4419 -6.78133
ltibia 76.5276 -0 0
lfoot -7.77233 -2.38305 0.0177861
ltoes -38.7157 0 0
rfemur -34.2409 -17.34 23.0608
rtibia 90.1404 -0 0
rfoot -40.2264 -30.1313 0.00917499
rtoes -13.7175 0 0
lowerback 16.2304 5.24883 1.37163
upperback -4.36892 7.54697 1.43926
thorax -14.0567 3.43876 -1.27316
lowerneck -2.83841 9.12545 1.41987
upperneck 7.96875 11.9511 1.72703
head 3.06273 6.01663 0.777814
lclavicle 1.14891e-14 1.07344e-14 0
lhumerus 6.10761 14.0303 82.8667
lradius 90.4554 -0 0
lwrist -17.7323 0 0
lhand -38.4761 28.7184 0.0163783
lfingers 7.12502 -0 0
lthumb -11.498 58.3683 0.0172722
rclavicle 1.14891e-14 1.07344e-14 0
rhumerus -54.0865 50.8222 -107.964
rradius 112.529 -0 0
rwrist -81.2756 0 0
rhand 6.43593 -25.5881 0.0490013
rfingers 7.12502 -0 0
rthumb 31.7319 -52.769 0.0679498
2957
root -5.85031 13.2989 -28.9647 160.918 -69.0066 -157.645
lfemur -67.5804 41.761 -6.90447
ltibia 75.7501 -0 0
lfoot -7.73287 -2.07483 0.0245461
ltoes -38.5786 0 0
rfemur -34.2922 -17.0216 23.2742
rtibia 89.7968 -0 0
rfoot -39.9849 -30.1092 0.0127216
rtoes -13.6694 0 0
lowerback 16.2205 5.21609 1.36324
upperback -4.32212 7.49685 1.42264
thorax -13.996 3.41706 -1.27083
lowerneck -2.78844 8.91595 1.27265
upperneck 7.77577 11.6773 1.76356
head 2.99316 5.88002 0.81023
lclavicle 1.14891e-14 1.07344e-14 0
lhumerus 6.29672 13.7458 82.8461
lradius 90.2884 -0 0
lwrist -17.3896 0 0
lhand -38.2462 28.7548 0.0226638
lfingers 7.12502 -0 0
lthumb -11.2761 58.4116 0.0238877
rclavicle 1.14891e-14 1.07344e-14 0
rhumerus -52.1521 50.6218 -106.529
rradius 112.366 -0 0
rwrist -80.8673 0 0
rhand 6.02647 -25.6897 0.0675777
rfingers 7.12502 -0 0
rthumb 31.3393 -52.9184 0.0936839
2958
root -5.80209 13.3427 -29.0182 160.196 -69.7565 -156.813
lfemur -67.4858 41.0268 -7.0371
ltibia 74.9095 -0 0
lfoot -7.68861 -1.74474 0.0315664
ltoes -38.4227 0 0
rfemur -34.3439 -16.6785 23.5041
rtibia 89.4238 -0 0
rfoot -39.7243 -30.0839 0.0164321
rtoes -13.6161 0 0
lowerback 16.2096 5.18109 1.35413
upperback -4.2718 7.44325 1.40477
thorax -13.9307 3.39387 -1.26832
lowerneck -2.7335 8.68964 1.11406
upperneck 7.56839 11.3814 1.80456
head 2.91826 5.73237 0.845517
lclavicle 1.14891e-14 1.07344e-14 0
lhumerus 6.50047 13.4363 82.8244
lradius 90.1092 -0 0
lwrist -17.0201 0 0
lhand -37.9996 28.7974 0.0292254
lfingers 7.12502 -0 0
lthumb -11.0381 58.4616 0.0307859
rclavicle 1.14891e-14 1.07344e-14 0
rhumerus -50.0822 50.3712 -105
rradius 112.191 -0 0
rwrist -80.4276 0 0
rhand 5.58487 -25.8 0.0868237
rfingers 7.12502 -0 0
rthumb 30.9159 -53.0802 0.120332
2959
root -5.75497 13.386 -29.0695 159.355 -70.5545 -155.856
lfemur -67.3819 40.2425 -7.17876
ltibia 74.0096 -0 0
lfoot -7.63981 -1.39417 0.038752
ltoes -38.2489 0 0
rfemur -34.3954 -16.3121 23.7492
rtibia 89.023 -0 0
rfoot -39.4459 -30.0556 0.0202568
rtoes -13.558 0 0
lowerback 16.1979 5.14399 1.34434
upperback -4.21818 7.38639 1.38571
thorax -13.861 3.36927 -1.26565
lowerneck -2.67373 8.44757 0.944754
upperneck 7.34751 11.0647 1.85007
head 2.83833 5.57437 0.883552
lclavicle 1.14891e-14 1.07344e-14 0
lhumerus 6.71793 13.1032 82.8015
lradius 89.9187 -0 0
lwrist -16.6253 0 0
lhand -37.7374 28.846 0.0359779
lfingers 7.12502 -0 0
lthumb -10.7849 58.5181 0.037876
rclavicle 1.14891e-14 1.07344e-14 0
rhumerus -47.8934 50.0649 -103.391
rradius 112.004 -0 0
rwrist -79.9585 0 0
rhand 5.11311 -25.9184 0.106466
rfingers 7.12502 -0 0
rthumb 30.4635 -53.2537 0.147515
